<?xml version="1.0" encoding="UTF-8" standalone="no"?>
<!DOCTYPE svg PUBLIC "-//W3C//DTD SVG 20010904//EN"
              "http://www.w3.org/TR/2001/REC-SVG-20010904/DTD/svg10.dtd">

<svg xmlns="http://www.w3.org/2000/svg"
	width="135.45mm" height="135.45mm"
	viewBox="0 0 512 512">
	<path id="climber_body"
		fill="none"
		stroke="black"
		stroke-width="1"
		d="M 200.00,190.00
			C 200.00,190.00 156.00,210.30 156.00,210.30
				149.82,213.09 142.67,216.93 136.00,213.43
				130.02,210.29 119.90,196.78 115.42,191.00
				115.42,191.00 75.05,133.00 75.05,133.00
				70.96,126.53 59.88,109.26 68.23,102.72
				77.33,95.59 88.44,105.62 94.16,112.00
				94.16,112.00 133.00,153.00 133.00,153.00
				135.97,155.97 144.03,165.39 148.00,165.43
				150.55,165.47 158.40,160.49 161.00,159.00
				161.00,159.00 189.00,143.78 189.00,143.78
				198.14,139.49 204.99,138.05 215.00,138.00
				227.14,137.94 251.27,132.63 264.00,130.00
				264.00,130.00 287.91,124.30 287.91,124.30
				289.82,123.41 290.66,122.51 291.96,120.89
				291.96,120.89 316.42,83.00 316.42,83.00
				316.42,83.00 352.42,27.00 352.42,27.00
				358.99,16.50 367.70,-2.33 383.00,2.85
				396.32,7.36 392.04,20.49 387.69,30.00
				387.69,30.00 351.25,103.00 351.25,103.00
				351.25,103.00 332.75,139.00 332.75,139.00
				329.77,144.98 325.33,152.53 324.30,159.00
				324.30,159.00 316.00,221.00 316.00,221.00
				315.34,225.80 313.55,243.86 311.40,246.82
				308.50,250.80 294.03,257.36 289.00,259.40
				266.09,268.67 241.55,272.00 217.00,272.00
				217.00,272.00 204.58,214.00 204.58,214.00
				204.58,214.00 200.00,190.00 200.00,190.00 Z" />
	<path id="climber_head"
		fill="none"
		stroke="black"
		stroke-width="1"
		d="M 228.00,43.52
			C 235.06,42.40 244.38,42.65 251.00,45.52
				281.54,58.76 278.43,105.18 246.00,113.52
				242.47,114.43 238.65,115.12 235.00,114.91
				202.30,113.00 187.88,73.52 212.17,51.62
				217.09,47.18 221.70,45.21 228.00,43.52 Z" />
	<path id="climber_legs"
		fill="none"
		stroke="black"
		stroke-width="1"
		d="M 295.00,345.00
			C 287.43,348.22 269.38,352.01 261.00,352.83
				256.39,353.29 245.79,352.99 242.64,356.31
				240.75,358.30 237.30,366.88 235.75,370.00
				235.75,370.00 220.14,402.00 220.14,402.00
				220.14,402.00 182.75,476.00 182.75,476.00
				176.61,488.29 166.81,513.94 149.00,508.35
				134.83,503.91 138.90,485.60 141.63,475.00
				146.61,455.65 168.52,403.20 177.00,382.00
				177.00,382.00 201.99,321.00 201.99,321.00
				201.99,321.00 208.58,305.00 208.58,305.00
				209.46,302.91 210.61,299.32 212.50,298.02
				214.61,296.57 220.21,297.10 223.00,296.83
				223.00,296.83 247.00,293.92 247.00,293.92
				268.99,290.22 293.86,282.65 314.00,273.11
				323.62,268.56 334.19,260.05 341.99,252.83
				341.99,252.83 350.09,244.79 350.09,244.79
				357.33,239.22 368.73,236.61 377.00,241.36
				389.92,248.80 390.23,266.01 392.41,279.00
				392.41,279.00 403.08,346.00 403.08,346.00
				403.08,346.00 409.00,386.00 409.00,386.00
				409.07,391.99 409.31,400.77 405.99,405.96
				404.28,408.63 402.16,410.24 399.00,410.77
				390.13,412.27 384.15,403.83 380.49,397.00
				373.62,384.19 368.96,361.64 365.12,347.00
				365.12,347.00 356.00,310.00 356.00,310.00
				349.13,313.54 336.95,323.92 330.00,329.13
				330.00,329.13 317.60,337.63 317.60,337.63
				315.65,339.85 316.01,343.24 316.00,346.00
				316.00,346.00 316.00,495.00 316.00,495.00
				315.99,499.47 316.12,504.11 313.30,507.89
				309.38,513.16 300.61,513.51 296.85,507.89
				294.77,504.78 295.01,500.59 295.00,497.00
				295.00,497.00 295.00,411.00 295.00,411.00
				295.00,411.00 295.00,345.00 295.00,345.00 Z" />
	<path id="climber_rope"
		fill="none"
		stroke="black"
		stroke-width="1"
		d="M 452.00,9.00
			C 452.00,9.00 473.00,10.00 473.00,10.00
				473.00,67.84 457.63,120.43 422.63,167.00
				413.35,179.34 398.09,194.93 386.00,204.55
				383.24,206.75 373.34,214.58 370.21,214.43
				367.87,214.32 366.47,211.72 365.32,209.98
				362.41,205.59 360.06,202.22 359.00,197.00
				373.52,189.53 392.07,170.71 402.39,158.00
				427.55,126.99 442.58,91.25 449.08,52.00
				450.40,44.03 451.99,31.95 452.00,24.00
				452.00,24.00 452.00,9.00 452.00,9.00 Z" />
</svg>
