<?xml version="1.0" encoding="UTF-8" standalone="no"?>
<!DOCTYPE svg PUBLIC "-//W3C//DTD SVG 20010904//EN"
              "http://www.w3.org/TR/2001/REC-SVG-20010904/DTD/svg10.dtd">

<svg xmlns="http://www.w3.org/2000/svg"
     width="23.6111in" height="23.6111in"
     viewBox="0 0 1700 1700">
  <path id="Sélection #1"
        fill="white" stroke="none" stroke-width="1"
        d="M 594.00,166.00
           C 591.75,180.55 582.51,192.25 568.00,196.08
             563.19,197.34 556.10,197.06 551.00,197.00
             541.95,196.89 535.08,194.12 528.00,188.48
             513.40,176.86 512.81,160.93 513.00,144.00
             513.14,131.98 518.42,118.26 528.01,110.68
             538.68,102.25 547.17,101.85 560.00,102.00
             578.42,102.22 590.43,114.50 594.00,132.00
             589.97,132.09 577.76,134.52 575.41,133.42
             573.04,132.32 572.96,129.72 569.78,126.02
             565.10,120.57 561.08,118.73 554.00,119.04
             535.99,119.83 532.84,137.63 533.00,152.00
             533.17,166.00 539.76,180.80 556.00,179.96
             562.30,179.63 567.20,176.25 570.53,170.99
             572.00,168.67 574.15,162.52 576.41,161.67
             578.85,160.75 590.48,165.20 594.00,166.00 Z
           M 855.00,167.01
           C 859.02,167.00 870.97,165.27 873.49,167.01
             875.21,168.22 876.49,171.99 877.85,174.00
             881.80,179.81 886.16,181.82 893.00,181.99
             908.06,182.35 915.50,171.29 907.78,164.64
             904.36,161.69 896.47,159.79 892.00,158.63
             880.00,155.51 865.67,151.69 860.48,139.00
             859.16,135.76 859.04,133.42 859.00,130.00
             858.97,126.77 858.86,123.10 859.80,120.00
             865.06,102.55 883.17,101.83 898.00,102.00
             905.36,102.09 911.91,103.68 917.96,108.05
             927.09,114.66 926.67,120.52 929.00,130.00
             925.51,130.99 912.56,132.08 909.68,130.00
             908.28,128.99 906.84,125.78 905.45,124.10
             902.18,120.18 898.91,119.15 894.00,119.02
             891.64,118.95 888.25,118.96 886.00,119.56
             881.05,120.86 875.66,125.41 879.69,130.67
             882.91,134.88 891.05,136.58 896.00,137.88
             907.91,141.03 922.04,144.03 928.17,156.00
             930.39,160.35 930.95,164.20 931.00,169.00
             931.13,182.33 925.70,191.53 913.00,196.54
             907.92,198.54 904.38,198.97 899.00,199.00
             886.74,199.06 874.98,199.74 865.17,190.67
             858.83,184.81 855.71,175.42 855.00,167.01 Z
           M 1014.00,166.00
           C 1011.75,180.55 1002.51,192.25 988.00,196.08
             983.19,197.34 976.10,197.06 971.00,197.00
             961.95,196.89 955.08,194.12 948.00,188.48
             933.40,176.86 932.81,160.93 933.00,144.00
             933.14,131.98 938.42,118.26 948.01,110.68
             958.68,102.25 967.17,101.85 980.00,102.00
             998.42,102.22 1010.43,114.50 1014.00,132.00
             1009.97,132.09 997.76,134.52 995.41,133.42
             993.04,132.32 992.96,129.72 989.78,126.02
             985.10,120.57 981.08,118.73 974.00,119.04
             955.99,119.83 952.84,137.63 953.00,152.00
             953.17,166.00 959.76,180.80 976.00,179.96
             982.30,179.63 987.20,176.25 990.53,170.99
             992.00,168.67 994.15,162.52 996.41,161.67
             998.85,160.75 1010.48,165.20 1014.00,166.00 Z
           M 281.00,104.00
           C 281.00,104.00 324.00,104.00 324.00,104.00
             330.77,104.01 336.26,104.50 342.00,108.64
             357.98,120.16 355.80,148.92 339.00,158.47
             329.97,163.60 311.64,162.00 301.00,162.00
             301.00,162.00 301.00,197.00 301.00,197.00
             301.00,197.00 281.00,197.00 281.00,197.00
             281.00,197.00 281.00,104.00 281.00,104.00 Z
           M 357.00,104.00
           C 357.00,104.00 426.00,104.00 426.00,104.00
             426.00,104.00 426.00,120.00 426.00,120.00
             426.00,120.00 377.00,120.00 377.00,120.00
             377.00,120.00 377.00,140.00 377.00,140.00
             377.00,140.00 423.00,140.00 423.00,140.00
             423.00,140.00 423.00,156.00 423.00,156.00
             423.00,156.00 377.00,156.00 377.00,156.00
             377.00,156.00 377.00,181.00 377.00,181.00
             377.00,181.00 428.00,181.00 428.00,181.00
             428.00,181.00 428.00,197.00 428.00,197.00
             428.00,197.00 357.00,197.00 357.00,197.00
             357.00,197.00 357.00,104.00 357.00,104.00 Z
           M 433.00,104.00
           C 433.00,104.00 474.00,104.00 474.00,104.00
             481.81,104.00 490.98,103.50 498.00,107.53
             509.72,114.26 512.78,134.42 505.35,145.00
             500.16,152.41 495.06,153.64 487.00,156.00
             490.02,158.23 492.84,160.38 495.38,163.17
             500.33,168.59 513.67,190.09 517.00,197.00
             517.00,197.00 500.00,197.00 500.00,197.00
             497.83,196.98 495.24,197.13 493.32,195.98
             490.71,194.41 482.36,180.52 480.00,177.00
             476.49,171.77 470.76,162.61 465.00,160.09
             462.68,159.07 456.11,158.56 453.00,158.00
             453.00,158.00 453.00,197.00 453.00,197.00
             453.00,197.00 433.00,197.00 433.00,197.00
             433.00,197.00 433.00,104.00 433.00,104.00 Z
           M 599.00,104.00
           C 599.00,104.00 619.00,104.00 619.00,104.00
             619.00,104.00 619.00,141.00 619.00,141.00
             619.00,141.00 654.00,141.00 654.00,141.00
             654.00,141.00 654.00,104.00 654.00,104.00
             654.00,104.00 674.00,104.00 674.00,104.00
             674.00,104.00 674.00,197.00 674.00,197.00
             674.00,197.00 654.00,197.00 654.00,197.00
             654.00,197.00 654.00,157.00 654.00,157.00
             654.00,157.00 619.00,157.00 619.00,157.00
             619.00,157.00 619.00,197.00 619.00,197.00
             619.00,197.00 599.00,197.00 599.00,197.00
             599.00,197.00 599.00,104.00 599.00,104.00 Z
           M 682.00,104.00
           C 682.00,104.00 751.00,104.00 751.00,104.00
             751.00,104.00 751.00,120.00 751.00,120.00
             751.00,120.00 702.00,120.00 702.00,120.00
             702.00,120.00 702.00,140.00 702.00,140.00
             702.00,140.00 748.00,140.00 748.00,140.00
             748.00,140.00 748.00,156.00 748.00,156.00
             748.00,156.00 702.00,156.00 702.00,156.00
             702.00,156.00 702.00,181.00 702.00,181.00
             702.00,181.00 753.00,181.00 753.00,181.00
             753.00,181.00 753.00,197.00 753.00,197.00
             753.00,197.00 682.00,197.00 682.00,197.00
             682.00,197.00 682.00,104.00 682.00,104.00 Z
           M 784.00,104.00
           C 784.00,104.00 853.00,104.00 853.00,104.00
             853.00,104.00 853.00,120.00 853.00,120.00
             853.00,120.00 804.00,120.00 804.00,120.00
             804.00,120.00 804.00,140.00 804.00,140.00
             804.00,140.00 850.00,140.00 850.00,140.00
             850.00,140.00 850.00,156.00 850.00,156.00
             850.00,156.00 804.00,156.00 804.00,156.00
             804.00,156.00 804.00,181.00 804.00,181.00
             804.00,181.00 855.00,181.00 855.00,181.00
             855.00,181.00 855.00,197.00 855.00,197.00
             855.00,197.00 784.00,197.00 784.00,197.00
             784.00,197.00 784.00,104.00 784.00,104.00 Z
           M 1010.00,197.00
           C 1010.00,197.00 1020.00,169.00 1020.00,169.00
             1020.00,169.00 1037.00,125.00 1037.00,125.00
             1037.00,125.00 1045.70,104.99 1045.70,104.99
             1045.70,104.99 1053.00,104.00 1053.00,104.00
             1053.00,104.00 1067.00,104.00 1067.00,104.00
             1067.00,104.00 1083.60,147.00 1083.60,147.00
             1083.60,147.00 1102.00,192.00 1102.00,192.00
             1102.00,192.00 1102.00,104.00 1102.00,104.00
             1102.00,104.00 1122.00,104.00 1122.00,104.00
             1122.00,104.00 1122.00,181.00 1122.00,181.00
             1122.00,181.00 1159.00,181.00 1159.00,181.00
             1161.21,181.00 1164.71,181.22 1166.58,179.98
             1168.78,178.52 1169.87,174.42 1170.81,172.00
             1170.81,172.00 1177.80,154.00 1177.80,154.00
             1177.80,154.00 1192.42,116.00 1192.42,116.00
             1196.41,105.53 1196.17,104.12 1203.00,104.00
             1203.00,104.00 1219.00,104.00 1219.00,104.00
             1219.00,104.00 1235.60,147.00 1235.60,147.00
             1235.60,147.00 1254.00,192.00 1254.00,192.00
             1254.00,192.00 1254.00,104.00 1254.00,104.00
             1254.00,104.00 1286.00,104.00 1286.00,104.00
             1300.08,104.00 1311.49,102.99 1321.67,115.01
             1336.29,132.27 1336.38,173.27 1318.96,188.79
             1312.12,194.89 1302.90,196.99 1294.00,197.00
             1294.00,197.00 1242.00,197.00 1242.00,197.00
             1239.78,197.00 1236.30,197.22 1234.41,195.98
             1230.31,193.26 1228.69,179.74 1224.59,177.02
             1222.84,175.87 1220.03,176.01 1218.00,176.00
             1218.00,176.00 1197.00,176.00 1197.00,176.00
             1195.13,176.04 1192.92,176.00 1191.27,177.02
             1188.12,179.00 1183.91,193.01 1183.00,197.00
             1183.00,197.00 1090.00,197.00 1090.00,197.00
             1087.78,197.00 1084.30,197.22 1082.41,195.98
             1078.31,193.26 1076.69,179.74 1072.59,177.02
             1070.70,175.78 1067.22,176.00 1065.00,176.00
             1065.00,176.00 1047.00,176.00 1047.00,176.00
             1044.72,176.00 1041.24,175.79 1039.27,177.02
             1036.12,179.00 1031.91,193.01 1031.00,197.00
             1031.00,197.00 1010.00,197.00 1010.00,197.00 Z
           M 1337.00,104.00
           C 1337.00,104.00 1406.00,104.00 1406.00,104.00
             1406.00,104.00 1406.00,120.00 1406.00,120.00
             1406.00,120.00 1357.00,120.00 1357.00,120.00
             1357.00,120.00 1357.00,140.00 1357.00,140.00
             1357.00,140.00 1403.00,140.00 1403.00,140.00
             1403.00,140.00 1403.00,156.00 1403.00,156.00
             1403.00,156.00 1357.00,156.00 1357.00,156.00
             1357.00,156.00 1357.00,181.00 1357.00,181.00
             1357.00,181.00 1408.00,181.00 1408.00,181.00
             1408.00,181.00 1408.00,197.00 1408.00,197.00
             1408.00,197.00 1337.00,197.00 1337.00,197.00
             1337.00,197.00 1337.00,104.00 1337.00,104.00 Z
           M 301.00,146.00
           C 306.51,146.00 322.73,145.47 326.90,142.77
             333.90,138.25 333.86,126.61 325.96,122.45
             322.94,120.87 305.29,120.00 301.00,120.00
             301.00,120.00 301.00,146.00 301.00,146.00 Z
           M 453.00,142.00
           C 453.00,142.00 472.00,141.04 472.00,141.04
             475.98,140.86 480.30,141.49 483.96,139.55
             490.52,136.05 490.48,126.62 484.89,122.74
             481.59,120.44 476.85,121.08 473.00,120.99
             473.00,120.99 464.00,120.04 464.00,120.04
             464.00,120.04 453.00,120.04 453.00,120.04
             453.00,120.04 453.00,142.00 453.00,142.00 Z
           M 1273.00,181.00
           C 1281.13,181.00 1298.50,181.43 1304.67,176.20
             1308.41,173.03 1309.79,168.61 1310.79,164.00
             1313.14,153.13 1313.31,132.37 1303.82,124.80
             1297.89,120.07 1292.80,121.38 1286.00,120.91
             1286.00,120.91 1273.00,120.00 1273.00,120.00
             1273.00,120.00 1273.00,181.00 1273.00,181.00 Z
           M 1056.00,128.00
           C 1056.00,128.00 1044.00,160.00 1044.00,160.00
             1044.00,160.00 1068.00,160.00 1068.00,160.00
             1068.00,160.00 1056.00,128.00 1056.00,128.00 Z
           M 1208.00,128.00
           C 1208.00,128.00 1196.00,160.00 1196.00,160.00
             1196.00,160.00 1220.00,160.00 1220.00,160.00
             1220.00,160.00 1208.00,128.00 1208.00,128.00 Z
           M 367.00,473.00
           C 359.19,474.65 350.76,482.46 344.58,487.38
             344.58,487.38 329.00,498.04 329.00,498.04
             329.00,498.04 321.00,504.74 321.00,504.74
             321.00,504.74 314.44,509.32 314.44,509.32
             314.44,509.32 305.56,517.34 305.56,517.34
             305.56,517.34 300.41,520.69 300.41,520.69
             300.41,520.69 297.21,524.52 297.21,524.52
             297.21,524.52 293.35,527.68 293.35,527.68
             293.35,527.68 288.80,532.72 288.80,532.72
             288.80,532.72 270.59,550.32 270.59,550.32
             270.59,550.32 253.55,571.00 253.55,571.00
             253.55,571.00 244.73,581.04 244.73,581.04
             228.00,602.56 209.91,633.82 199.33,659.00
             199.33,659.00 185.92,698.00 185.92,698.00
             185.92,698.00 182.49,714.00 182.49,714.00
             182.49,714.00 180.37,721.00 180.37,721.00
             178.42,730.27 175.11,757.67 175.00,767.00
             175.00,767.00 175.00,805.00 175.00,805.00
             175.00,805.00 176.04,817.00 176.04,817.00
             176.04,817.00 176.04,827.00 176.04,827.00
             176.04,827.00 178.02,837.00 178.02,837.00
             178.02,837.00 178.02,844.00 178.02,844.00
             178.02,844.00 182.69,862.00 182.69,862.00
             182.69,862.00 185.60,877.00 185.60,877.00
             185.60,877.00 189.10,888.00 189.10,888.00
             189.10,888.00 190.70,894.00 190.70,894.00
             190.70,894.00 194.54,902.00 194.54,902.00
             194.54,902.00 200.62,919.96 200.62,919.96
             200.62,919.96 204.98,928.04 204.98,928.04
             204.98,928.04 208.13,936.91 208.13,936.91
             208.13,936.91 211.50,942.17 211.50,942.17
             211.50,942.17 224.08,963.00 224.08,963.00
             224.08,963.00 236.32,983.00 236.32,983.00
             236.32,983.00 242.91,990.18 242.91,990.18
             242.91,990.18 248.62,997.99 248.62,997.99
             248.62,997.99 254.37,1004.28 254.37,1004.28
             254.37,1004.28 259.04,1010.54 259.04,1010.54
             259.04,1010.54 275.64,1026.59 275.64,1026.59
             275.64,1026.59 287.37,1038.41 287.37,1038.41
             287.37,1038.41 298.83,1047.02 298.83,1047.02
             298.83,1047.02 312.01,1057.58 312.01,1057.58
             312.01,1057.58 325.91,1066.60 325.91,1066.60
             325.91,1066.60 350.00,1081.45 350.00,1081.45
             350.00,1081.45 357.00,1084.40 357.00,1084.40
             357.00,1084.40 381.00,1095.96 381.00,1095.96
             381.00,1095.96 423.00,1110.08 423.00,1110.08
             423.00,1110.08 436.00,1112.51 436.00,1112.51
             436.00,1112.51 443.00,1114.48 443.00,1114.48
             443.00,1114.48 463.00,1117.28 463.00,1117.28
             471.28,1118.28 473.36,1119.99 482.00,1120.00
             482.00,1120.00 525.00,1120.00 525.00,1120.00
             532.16,1119.91 539.00,1118.46 546.00,1117.32
             546.00,1117.32 555.00,1116.79 555.00,1116.79
             555.00,1116.79 561.00,1115.36 561.00,1115.36
             561.00,1115.36 578.00,1112.01 578.00,1112.01
             578.00,1112.01 616.00,1101.23 616.00,1101.23
             616.00,1101.23 622.96,1099.29 622.96,1099.29
             622.96,1099.29 629.17,1096.06 629.17,1096.06
             629.17,1096.06 639.91,1092.32 639.91,1092.32
             639.91,1092.32 647.04,1088.19 647.04,1088.19
             647.04,1088.19 657.00,1084.37 657.00,1084.37
             657.00,1084.37 686.95,1065.91 686.95,1065.91
             686.95,1065.91 694.04,1059.59 694.04,1059.59
             694.04,1059.59 703.91,1052.63 703.91,1052.63
             721.50,1037.62 737.78,1020.71 751.59,1002.17
             760.27,990.51 775.08,973.80 780.95,961.00
             789.57,942.20 796.53,904.23 800.33,883.00
             800.33,883.00 802.63,875.00 802.63,875.00
             802.63,875.00 810.37,838.00 810.37,838.00
             810.37,838.00 811.91,831.00 811.91,831.00
             811.91,831.00 814.79,818.00 814.79,818.00
             814.79,818.00 815.64,807.00 815.64,807.00
             816.17,802.94 818.06,798.11 815.64,794.18
             812.98,789.20 807.07,788.88 802.00,789.02
             796.73,789.16 796.55,790.00 792.00,790.83
             784.89,792.13 779.24,792.30 772.00,794.67
             772.00,794.67 752.00,802.69 752.00,802.69
             752.00,802.69 744.00,805.52 744.00,805.52
             744.00,805.52 736.00,809.46 736.00,809.46
             722.97,814.63 705.54,820.35 695.42,830.30
             689.33,836.30 682.14,845.23 678.49,853.00
             678.49,853.00 670.32,874.00 670.32,874.00
             666.82,880.12 662.48,884.53 655.00,883.89
             646.03,883.12 640.94,875.01 646.11,867.00
             654.24,854.41 669.82,846.93 675.04,832.00
             677.38,825.30 675.81,812.82 668.96,809.17
             666.28,807.75 662.02,807.96 659.00,808.00
             653.44,808.08 642.30,811.36 637.09,813.60
             637.09,813.60 629.96,817.41 629.96,817.41
             629.96,817.41 618.00,822.22 618.00,822.22
             606.98,828.63 609.81,828.43 597.00,832.59
             594.75,833.32 592.41,834.58 590.00,834.40
             587.93,834.25 585.70,833.01 584.00,831.89
             581.69,830.37 579.47,828.48 578.17,825.99
             574.19,818.30 576.64,803.98 584.02,799.13
             595.88,791.33 614.36,801.65 628.00,800.96
             631.81,800.76 632.64,800.07 636.00,799.36
             636.00,799.36 645.00,797.70 645.00,797.70
             651.57,795.86 664.72,789.92 660.79,781.00
             660.08,779.39 658.42,777.42 657.25,776.10
             655.52,774.17 653.60,772.43 651.56,770.84
             637.76,760.03 608.57,751.54 597.29,740.62
             587.94,731.57 591.47,715.59 602.04,709.01
             611.01,703.42 617.56,710.87 623.17,717.00
             623.17,717.00 629.73,724.00 629.73,724.00
             629.73,724.00 635.01,732.00 635.01,732.00
             635.01,732.00 642.52,741.08 642.52,741.08
             648.21,748.43 646.96,748.37 654.58,755.36
             660.73,761.00 667.66,766.15 675.77,760.01
             682.26,755.10 676.51,745.06 674.49,739.00
             669.14,722.94 671.28,730.63 665.63,718.00
             665.63,718.00 663.30,711.09 663.30,711.09
             663.30,711.09 659.41,703.96 659.41,703.96
             656.41,698.33 651.04,691.95 652.29,685.01
             652.81,682.16 654.74,679.94 656.67,677.89
             664.00,670.10 672.60,672.78 678.78,680.43
             684.11,687.04 683.94,703.69 684.30,712.00
             684.76,722.68 684.55,731.84 690.89,741.00
             693.28,744.46 696.09,748.62 700.96,747.53
             704.48,746.74 706.40,743.19 707.37,740.00
             709.38,733.36 709.14,724.88 710.21,718.00
             710.75,714.53 712.65,711.63 712.56,709.02
             712.40,703.88 707.46,703.30 704.13,700.87
             698.97,697.10 694.72,687.36 697.18,681.12
             698.42,677.98 701.96,676.51 705.00,675.63
             714.83,672.78 722.68,673.40 731.82,667.14
             738.29,662.69 737.80,657.66 730.98,653.92
             728.79,652.71 727.33,652.40 725.00,651.73
             719.61,650.19 719.70,650.03 714.00,650.00
             714.00,650.00 707.00,650.00 707.00,650.00
             707.00,650.00 678.00,653.07 678.00,653.07
             674.04,653.43 667.03,654.10 663.32,652.43
             661.69,651.70 660.64,650.38 659.63,648.95
             653.07,639.61 661.09,627.40 670.00,625.92
             674.58,625.16 683.42,628.35 688.00,629.84
             698.37,633.20 718.92,641.53 729.00,640.96
             738.65,640.40 739.98,632.48 732.90,626.78
             732.90,626.78 697.00,606.33 697.00,606.33
             690.90,602.04 686.13,597.06 688.65,589.00
             690.98,581.54 704.55,570.11 712.79,576.65
             716.05,579.23 719.49,586.25 721.83,590.00
             727.33,598.79 734.02,609.52 741.42,616.79
             751.36,626.55 763.11,618.97 761.83,606.00
             760.82,595.69 758.83,594.89 759.00,582.00
             759.23,565.50 777.93,560.24 786.27,575.00
             788.09,578.23 788.57,580.46 787.32,584.00
             786.16,587.31 784.44,589.19 782.59,592.00
             781.06,594.33 776.37,602.60 775.65,605.00
             773.43,612.39 776.04,621.84 784.00,624.35
             798.46,628.91 806.94,608.88 816.18,601.92
             822.90,596.56 830.49,594.51 836.50,601.92
             848.13,616.75 827.51,623.91 817.00,627.10
             814.61,627.83 811.10,628.07 809.18,629.17
             806.76,630.57 804.14,634.45 803.08,637.00
             800.29,643.72 807.32,652.77 812.04,657.15
             820.70,665.19 837.27,675.34 849.00,677.77
             852.42,678.17 858.36,678.04 862.00,677.77
             872.90,677.87 883.21,673.88 893.00,669.51
             899.55,666.59 905.91,663.89 911.99,659.97
             915.17,657.92 916.43,656.24 919.17,653.88
             927.17,647.01 934.08,641.06 939.88,631.96
             946.48,621.63 947.19,611.38 952.41,602.00
             954.74,597.81 960.63,592.54 964.28,589.09
             964.28,589.09 978.00,580.13 978.00,580.13
             978.00,580.13 991.00,569.63 991.00,569.63
             998.82,564.03 1005.92,560.70 1011.37,551.96
             1015.53,545.29 1016.96,535.76 1017.00,528.00
             1017.12,501.47 1011.59,488.64 1004.78,464.00
             1004.78,464.00 1001.34,448.00 1001.34,448.00
             998.46,434.80 996.18,429.25 996.53,415.00
             996.53,415.00 997.29,398.00 997.29,398.00
             999.48,381.23 1007.46,358.97 1015.32,344.00
             1027.78,320.26 1051.08,290.16 1070.37,271.50
             1070.37,271.50 1082.63,260.41 1082.63,260.41
             1082.63,260.41 1094.21,248.59 1094.21,248.59
             1094.21,248.59 1103.72,241.41 1103.72,241.41
             1118.13,229.07 1134.99,214.85 1155.00,214.04
             1176.86,213.16 1187.38,229.60 1193.93,248.00
             1197.61,258.34 1199.66,272.06 1201.27,283.00
             1201.27,283.00 1205.00,320.00 1205.00,320.00
             1205.00,320.00 1205.00,362.00 1205.00,362.00
             1205.00,362.00 1203.15,377.00 1203.15,377.00
             1198.92,411.93 1187.27,442.64 1166.14,470.91
             1149.01,493.84 1117.32,521.54 1118.01,552.00
             1118.46,571.72 1128.93,588.03 1140.21,603.28
             1140.21,603.28 1162.36,632.25 1162.36,632.25
             1162.36,632.25 1169.51,640.03 1169.51,640.03
             1169.51,640.03 1172.68,644.72 1172.68,644.72
             1172.68,644.72 1181.92,655.00 1181.92,655.00
             1181.92,655.00 1189.21,663.17 1189.21,663.17
             1193.08,668.42 1195.19,672.27 1199.84,677.28
             1202.13,679.75 1204.22,683.55 1208.02,683.55
             1214.09,683.55 1217.84,675.60 1220.14,671.00
             1228.35,654.61 1230.24,643.02 1230.00,625.00
             1229.80,610.00 1220.37,588.43 1208.00,579.63
             1200.21,574.10 1183.65,571.46 1179.65,567.44
             1177.06,564.84 1176.47,559.40 1177.51,556.02
             1180.09,547.61 1188.80,548.07 1194.72,552.67
             1204.70,560.41 1214.36,576.67 1226.00,571.64
             1228.34,570.62 1230.81,569.03 1232.26,566.90
             1236.00,561.43 1231.70,551.46 1227.93,547.00
             1227.93,547.00 1219.40,536.21 1219.40,536.21
             1219.40,536.21 1214.37,531.63 1214.37,531.63
             1214.37,531.63 1209.97,526.28 1209.97,526.28
             1203.39,518.64 1197.21,510.71 1206.30,501.60
             1214.08,493.79 1221.85,494.98 1226.87,505.00
             1233.91,519.06 1229.49,533.29 1240.63,546.89
             1246.26,553.77 1258.40,551.46 1262.43,543.98
             1264.69,539.79 1264.06,530.92 1264.00,526.00
             1263.91,519.54 1261.51,513.36 1260.47,507.00
             1259.49,501.02 1261.42,494.31 1266.05,490.27
             1272.00,485.10 1279.46,486.06 1282.40,494.00
             1283.11,495.93 1283.00,498.92 1283.00,501.00
             1283.00,501.00 1283.00,506.00 1283.00,506.00
             1283.00,506.00 1276.04,541.00 1276.04,541.00
             1275.60,551.23 1281.33,554.51 1291.00,553.96
             1296.78,553.63 1299.75,550.49 1304.00,546.92
             1304.00,546.92 1325.68,527.79 1325.68,527.79
             1332.06,522.77 1338.62,518.60 1344.07,527.79
             1351.87,541.48 1336.30,545.32 1327.00,548.19
             1318.46,550.82 1304.12,555.53 1302.52,566.04
             1302.08,568.91 1306.16,582.02 1307.63,584.90
             1313.28,595.97 1326.92,594.72 1337.00,592.14
             1344.62,590.19 1353.08,589.13 1356.71,598.00
             1359.74,605.39 1354.05,610.56 1347.00,611.92
             1345.48,612.34 1338.74,612.04 1337.00,611.92
             1329.03,610.82 1321.11,605.28 1313.00,605.34
             1307.17,605.38 1296.52,610.00 1291.00,612.32
             1291.00,612.32 1283.00,615.07 1283.00,615.07
             1271.11,620.35 1258.76,631.85 1253.92,644.00
             1251.27,650.68 1250.30,658.05 1248.63,665.00
             1248.63,665.00 1246.38,672.00 1246.38,672.00
             1243.49,684.91 1241.67,698.26 1234.09,709.42
             1229.69,715.89 1224.66,725.34 1215.00,723.91
             1208.09,722.90 1200.67,715.04 1195.85,710.28
             1184.15,698.75 1163.35,674.64 1147.00,672.42
             1138.06,671.20 1130.15,679.62 1126.80,687.00
             1125.20,690.52 1122.46,703.57 1121.55,708.00
             1121.55,708.00 1111.19,748.00 1111.19,748.00
             1111.19,748.00 1105.61,765.00 1105.61,765.00
             1105.61,765.00 1086.69,813.00 1086.69,813.00
             1065.94,858.20 1041.30,895.57 1008.69,933.09
             1008.69,933.09 984.36,957.59 984.36,957.59
             984.36,957.59 979.81,962.63 979.81,962.63
             973.26,968.89 964.10,976.76 958.73,984.02
             954.13,990.23 947.37,1003.08 948.41,1011.00
             948.93,1014.91 954.49,1033.44 956.13,1037.00
             956.13,1037.00 962.29,1048.00 962.29,1048.00
             962.29,1048.00 968.04,1061.83 968.04,1061.83
             968.04,1061.83 972.14,1068.04 972.14,1068.04
             972.14,1068.04 980.83,1083.00 980.83,1083.00
             980.83,1083.00 995.47,1111.00 995.47,1111.00
             1002.34,1123.71 1004.52,1125.28 1010.85,1140.00
             1017.27,1154.93 1028.82,1175.32 1024.66,1192.00
             1022.11,1202.23 1006.61,1211.47 997.99,1216.91
             997.99,1216.91 964.00,1236.67 964.00,1236.67
             964.00,1236.67 939.00,1252.12 939.00,1252.12
             932.45,1256.05 917.91,1265.19 914.65,1272.04
             911.97,1277.66 910.99,1291.40 918.11,1294.25
             920.91,1295.37 927.14,1294.02 930.00,1293.10
             937.31,1290.74 945.33,1284.49 952.00,1280.62
             957.18,1277.61 961.58,1276.46 966.91,1274.30
             966.91,1274.30 973.09,1271.18 973.09,1271.18
             979.67,1269.48 989.35,1276.64 991.09,1283.00
             992.59,1288.45 986.64,1294.76 981.99,1296.72
             975.52,1299.43 965.78,1299.71 959.00,1301.12
             959.00,1301.12 944.00,1305.41 944.00,1305.41
             941.72,1306.17 940.24,1306.36 938.00,1307.57
             932.60,1310.46 920.75,1321.02 929.23,1326.91
             933.30,1329.75 943.89,1329.06 949.00,1329.00
             949.00,1329.00 964.00,1328.00 964.00,1328.00
             964.00,1328.00 977.00,1328.00 977.00,1328.00
             984.36,1327.90 983.93,1326.55 989.00,1326.10
             993.55,1325.71 1007.61,1328.10 1010.69,1331.34
             1012.57,1333.32 1014.23,1339.27 1014.59,1342.00
             1016.18,1354.11 1003.64,1358.07 994.00,1357.16
             994.00,1357.16 947.00,1343.02 947.00,1343.02
             941.50,1341.81 932.30,1340.34 929.75,1347.04
             927.76,1352.28 931.41,1358.87 934.29,1363.00
             941.09,1372.72 948.56,1381.37 956.71,1389.95
             962.91,1396.48 967.55,1403.41 960.56,1411.67
             958.53,1414.06 956.78,1414.86 954.25,1416.48
             946.98,1421.13 942.63,1422.49 937.21,1413.96
             935.13,1410.69 930.66,1397.39 929.16,1393.00
             925.29,1381.70 919.27,1367.13 911.33,1358.11
             906.44,1352.54 894.32,1349.13 888.65,1355.39
             885.17,1359.22 884.90,1365.12 885.01,1370.00
             885.25,1380.45 887.49,1390.80 889.46,1401.00
             889.46,1401.00 892.09,1414.00 892.09,1414.00
             892.84,1420.43 894.58,1426.50 891.05,1432.83
             881.08,1450.77 854.68,1430.90 856.22,1417.00
             856.22,1417.00 860.71,1402.00 860.71,1402.00
             863.35,1392.29 870.88,1369.71 871.00,1361.00
             871.00,1361.00 871.00,1353.00 871.00,1353.00
             870.79,1337.94 856.69,1336.36 846.00,1342.70
             837.28,1347.87 823.77,1357.11 817.60,1365.01
             810.96,1373.51 803.82,1388.48 795.00,1393.89
             793.01,1395.12 791.42,1395.96 789.00,1395.67
             781.11,1394.72 768.33,1380.33 769.49,1372.01
             770.54,1364.54 780.91,1359.76 787.00,1357.30
             787.00,1357.30 795.00,1353.34 795.00,1353.34
             795.00,1353.34 804.91,1349.41 804.91,1349.41
             810.81,1346.74 825.01,1338.50 829.79,1334.37
             835.79,1329.19 838.63,1321.08 841.31,1314.00
             845.61,1302.64 847.80,1294.02 855.53,1284.00
             861.39,1276.39 865.84,1273.91 872.83,1268.37
             872.83,1268.37 884.00,1259.39 884.00,1259.39
             884.00,1259.39 923.00,1235.07 923.00,1235.07
             923.00,1235.07 931.28,1227.63 931.28,1227.63
             931.28,1227.63 935.63,1224.37 935.63,1224.37
             940.74,1219.80 952.81,1204.96 952.57,1198.00
             952.34,1191.52 942.35,1182.60 938.54,1177.83
             938.54,1177.83 928.16,1161.01 928.16,1161.01
             925.11,1156.51 924.33,1156.46 921.36,1152.91
             921.36,1152.91 914.44,1143.00 914.44,1143.00
             914.44,1143.00 898.07,1117.17 898.07,1117.17
             898.07,1117.17 888.59,1105.00 888.59,1105.00
             880.61,1093.25 875.19,1082.65 859.00,1083.01
             850.42,1083.21 837.61,1087.62 830.00,1091.54
             830.00,1091.54 813.00,1100.65 813.00,1100.65
             813.00,1100.65 806.00,1103.07 806.00,1103.07
             806.00,1103.07 795.00,1109.51 795.00,1109.51
             795.00,1109.51 782.00,1115.05 782.00,1115.05
             782.00,1115.05 774.00,1119.36 774.00,1119.36
             774.00,1119.36 762.00,1124.03 762.00,1124.03
             762.00,1124.03 754.00,1128.05 754.00,1128.05
             754.00,1128.05 745.00,1131.51 745.00,1131.51
             745.00,1131.51 738.00,1135.17 738.00,1135.17
             738.00,1135.17 719.00,1141.70 719.00,1141.70
             719.00,1141.70 713.00,1144.49 713.00,1144.49
             713.00,1144.49 686.00,1153.64 686.00,1153.64
             686.00,1153.64 669.00,1159.41 669.00,1159.41
             669.00,1159.41 638.04,1167.40 638.04,1167.40
             638.04,1167.40 631.83,1169.76 631.83,1169.76
             631.83,1169.76 613.00,1173.91 613.00,1173.91
             613.00,1173.91 603.00,1175.37 603.00,1175.37
             603.00,1175.37 587.00,1178.71 587.00,1178.71
             587.00,1178.71 571.00,1180.30 571.00,1180.30
             571.00,1180.30 564.00,1181.70 564.00,1181.70
             564.00,1181.70 548.00,1182.26 548.00,1182.26
             541.24,1182.10 544.20,1182.50 539.00,1183.24
             539.00,1183.24 526.00,1184.00 526.00,1184.00
             526.00,1184.00 506.00,1184.00 506.00,1184.00
             497.97,1183.96 499.72,1183.00 494.00,1182.10
             494.00,1182.10 482.00,1182.10 482.00,1182.10
             474.48,1181.91 449.30,1176.89 441.00,1175.01
             398.74,1165.44 358.81,1147.69 322.16,1124.69
             307.25,1115.33 293.09,1104.20 279.83,1092.66
             279.83,1092.66 267.37,1082.50 267.37,1082.50
             250.60,1066.61 235.39,1049.29 221.13,1031.17
             221.13,1031.17 215.01,1023.99 215.01,1023.99
             215.01,1023.99 199.53,999.28 199.53,999.28
             199.53,999.28 181.27,968.96 181.27,968.96
             181.27,968.96 171.47,948.00 171.47,948.00
             171.47,948.00 168.88,940.00 168.88,940.00
             168.88,940.00 164.40,931.00 164.40,931.00
             160.03,919.51 149.72,882.24 147.37,870.00
             147.37,870.00 146.68,864.00 146.68,864.00
             146.68,864.00 144.99,857.00 144.99,857.00
             144.99,857.00 144.99,849.00 144.99,849.00
             144.99,849.00 143.17,842.00 143.17,842.00
             141.99,835.54 142.01,832.42 142.00,826.00
             141.98,814.53 139.85,818.10 140.00,806.00
             140.10,798.69 141.42,799.18 141.95,794.00
             141.95,794.00 141.95,775.00 141.95,775.00
             141.95,775.00 144.85,753.00 144.85,753.00
             148.85,720.78 158.82,688.52 172.31,659.00
             184.11,633.16 200.68,608.98 218.17,586.74
             218.17,586.74 235.64,567.58 235.64,567.58
             235.64,567.58 253.28,549.17 253.28,549.17
             253.28,549.17 259.83,543.83 259.83,543.83
             259.83,543.83 281.72,525.39 281.72,525.39
             281.72,525.39 289.00,518.68 289.00,518.68
             289.00,518.68 301.91,509.85 301.91,509.85
             301.91,509.85 310.29,502.81 310.29,502.81
             310.29,502.81 329.00,491.12 329.00,491.12
             329.00,491.12 350.04,478.09 350.04,478.09
             355.69,474.43 360.30,470.59 367.00,469.00
             367.00,469.00 367.00,473.00 367.00,473.00 Z
           M 739.00,674.43
           C 730.70,677.67 723.63,688.14 718.02,695.00
             715.51,698.06 712.47,702.60 715.18,706.57
             717.07,709.35 720.53,708.61 724.00,709.80
             730.24,711.95 737.30,718.85 736.04,726.00
             735.25,730.53 732.00,734.73 728.96,738.00
             724.07,743.25 715.33,751.55 712.68,758.00
             711.85,760.01 710.20,765.90 710.21,768.00
             710.21,774.23 715.15,783.50 721.04,785.99
             723.41,787.00 726.45,787.07 729.00,786.96
             739.16,786.52 747.93,781.84 757.00,777.95
             757.00,777.95 765.96,774.56 765.96,774.56
             765.96,774.56 774.04,770.00 774.04,770.00
             774.04,770.00 790.91,762.38 790.91,762.38
             790.91,762.38 798.04,758.02 798.04,758.02
             804.58,754.67 805.04,755.56 809.00,753.94
             816.00,751.06 819.31,749.10 827.00,746.85
             827.00,746.85 838.00,743.20 838.00,743.20
             840.49,742.86 846.23,742.97 849.00,743.20
             860.36,743.14 870.09,750.06 875.37,760.00
             877.03,763.13 880.48,775.99 881.41,780.00
             884.34,792.60 883.89,800.50 884.26,813.00
             884.26,813.00 883.03,833.00 883.03,833.00
             883.05,835.81 883.26,838.97 886.23,840.25
             889.77,841.77 894.05,839.27 896.37,836.67
             899.53,833.12 908.41,818.72 911.13,814.00
             918.62,800.97 926.62,785.99 932.08,772.00
             937.90,757.06 945.98,725.86 946.00,710.00
             946.01,701.70 947.56,689.18 936.98,686.29
             934.94,686.02 932.11,685.96 930.00,686.29
             925.51,686.21 913.97,688.37 910.00,690.08
             910.00,690.08 902.00,694.69 902.00,694.69
             894.52,698.85 883.59,702.63 875.00,702.96
             861.38,703.49 839.26,697.16 826.00,693.18
             826.00,693.18 818.00,691.40 818.00,691.40
             818.00,691.40 806.00,687.56 806.00,687.56
             806.00,687.56 785.00,681.59 785.00,681.59
             770.14,677.06 754.70,672.04 739.00,674.43 Z
           M 1368.00,1094.00
           C 1368.00,1094.00 1387.72,1101.53 1387.72,1101.53
             1391.04,1102.13 1394.72,1098.67 1396.96,1101.53
             1399.50,1104.92 1394.60,1111.97 1393.32,1115.17
             1391.86,1118.82 1392.02,1122.39 1389.77,1125.91
             1383.39,1135.91 1371.05,1128.22 1363.00,1125.00
             1357.12,1134.63 1352.28,1119.96 1359.41,1116.12
             1363.28,1114.05 1374.68,1121.75 1378.98,1121.90
             1384.05,1122.07 1386.39,1114.10 1383.98,1110.41
             1382.49,1108.15 1374.77,1105.31 1372.00,1104.00
             1369.18,1111.77 1364.13,1109.47 1363.64,1105.89
             1363.25,1103.09 1366.65,1096.60 1368.00,1094.00 Z
           M 1357.00,1134.55
           C 1360.15,1134.45 1363.05,1134.70 1365.99,1135.99
             1382.88,1143.43 1373.18,1173.67 1354.00,1171.44
             1341.87,1170.04 1336.86,1156.32 1341.56,1146.00
             1344.60,1139.30 1350.03,1135.97 1357.00,1134.55 Z
           M 1355.00,1143.60
           C 1350.97,1145.76 1348.51,1148.19 1348.12,1153.00
             1347.60,1159.52 1352.27,1164.82 1359.00,1162.26
             1368.78,1158.54 1370.80,1140.29 1355.00,1143.60 Z
           M 648.00,1167.00
           C 648.00,1167.00 644.00,1172.00 644.00,1172.00
             644.00,1172.00 648.00,1167.00 648.00,1167.00 Z
           M 1325.00,1185.00
           C 1325.00,1179.67 1324.32,1173.47 1329.21,1169.89
             1333.54,1166.72 1339.94,1168.08 1338.35,1172.81
             1337.53,1175.24 1334.78,1176.12 1333.60,1179.10
             1330.35,1187.28 1336.63,1191.93 1343.00,1195.00
             1344.31,1191.98 1346.94,1185.62 1350.17,1184.40
             1352.92,1183.36 1356.96,1185.58 1353.52,1192.00
             1352.13,1194.59 1341.22,1211.20 1339.62,1212.38
             1336.79,1214.48 1333.74,1212.95 1333.59,1209.94
             1333.46,1207.34 1335.56,1204.95 1337.00,1203.00
             1337.00,1203.00 1326.00,1196.09 1326.00,1196.09
             1322.98,1195.37 1320.98,1197.93 1318.15,1197.12
             1311.71,1195.27 1319.18,1186.57 1321.00,1184.00
             1321.00,1184.00 1325.00,1185.00 1325.00,1185.00 Z
           M 1297.00,1216.00
           C 1298.88,1212.43 1302.98,1205.87 1307.00,1204.66
             1309.60,1203.87 1311.78,1205.21 1311.55,1208.06
             1311.31,1211.20 1305.03,1218.51 1303.00,1222.00
             1306.35,1223.77 1312.81,1229.58 1315.98,1228.68
             1321.98,1226.98 1323.10,1216.12 1327.20,1214.66
             1332.86,1212.64 1331.76,1220.16 1330.75,1223.00
             1329.88,1225.46 1328.70,1227.82 1327.24,1229.99
             1326.23,1231.49 1324.86,1233.24 1323.54,1234.47
             1313.62,1243.69 1304.55,1233.93 1297.00,1227.00
             1296.16,1228.55 1295.75,1229.89 1293.87,1230.60
             1287.19,1233.12 1289.61,1223.26 1289.43,1222.61
             1288.80,1220.32 1285.56,1218.64 1284.96,1215.93
             1284.28,1212.83 1286.91,1209.98 1292.00,1212.65
             1292.00,1212.65 1297.00,1216.00 1297.00,1216.00 Z
           M 466.00,1236.00
           C 464.80,1233.06 463.05,1226.41 469.02,1227.74
             472.48,1228.52 476.81,1234.34 479.15,1237.00
             479.15,1237.00 489.70,1249.00 489.70,1249.00
             490.95,1250.52 492.94,1252.87 492.84,1254.96
             492.73,1257.37 489.74,1259.67 488.00,1261.06
             486.89,1261.94 485.36,1263.18 484.00,1263.60
             481.75,1264.31 479.37,1263.32 478.74,1260.93
             477.99,1258.04 481.06,1256.35 480.98,1253.91
             480.87,1250.85 473.28,1243.33 471.00,1241.00
             471.00,1241.00 465.00,1248.00 465.00,1248.00
             469.38,1250.34 469.19,1249.96 474.00,1249.00
             474.72,1250.60 475.63,1252.11 475.47,1253.96
             475.14,1257.69 467.04,1264.68 463.16,1263.34
             458.70,1261.81 462.60,1255.35 458.76,1254.76
             456.43,1254.40 453.54,1257.57 452.00,1259.00
             454.39,1260.76 457.38,1262.89 458.12,1265.98
             458.90,1269.26 456.02,1271.25 453.16,1270.34
             450.13,1269.38 440.51,1258.12 439.65,1255.00
             439.16,1253.23 439.49,1251.11 441.31,1250.24
             443.61,1249.14 445.50,1251.35 449.00,1249.42
             452.88,1247.27 458.95,1239.78 466.00,1236.00 Z
           M 1283.00,1240.55
           C 1285.96,1240.45 1288.15,1240.59 1291.00,1241.61
             1307.63,1247.55 1301.72,1274.66 1283.00,1277.10
             1269.04,1278.92 1262.54,1264.85 1266.84,1253.00
             1269.53,1245.56 1275.61,1242.06 1283.00,1240.55 Z
           M 1281.00,1249.43
           C 1268.62,1254.43 1272.21,1272.01 1284.00,1268.35
             1292.19,1265.81 1296.14,1254.09 1288.89,1250.02
             1286.46,1248.65 1283.62,1249.04 1281.00,1249.43 Z
           M 1230.00,1290.00
           C 1224.33,1294.55 1220.67,1289.61 1224.57,1284.00
             1227.97,1279.11 1238.33,1268.82 1244.00,1267.06
             1249.90,1265.23 1256.81,1267.65 1258.79,1274.00
             1259.11,1275.96 1259.00,1279.85 1258.79,1282.14
             1258.79,1282.14 1270.00,1282.14 1270.00,1282.14
             1270.00,1282.14 1275.94,1280.97 1275.94,1280.97
             1277.55,1280.97 1278.79,1281.67 1279.15,1283.23
             1279.78,1284.46 1279.54,1285.81 1279.15,1286.95
             1275.70,1293.36 1267.80,1289.73 1261.00,1290.04
             1257.83,1290.18 1252.55,1291.17 1251.91,1295.04
             1250.51,1303.60 1266.04,1293.71 1263.35,1303.02
             1262.49,1305.97 1255.90,1313.47 1252.99,1314.55
             1249.70,1315.78 1244.93,1314.23 1250.00,1307.00
             1250.00,1307.00 1230.00,1290.00 1230.00,1290.00 Z
           M 1236.00,1284.00
           C 1237.48,1285.42 1240.00,1288.16 1242.00,1288.66
             1250.08,1290.70 1255.12,1269.68 1244.00,1275.87
             1242.66,1276.62 1241.14,1277.97 1240.04,1279.05
             1238.48,1280.59 1237.27,1282.23 1236.00,1284.00 Z
           M 506.03,1293.00
           C 503.50,1290.83 500.41,1285.68 506.03,1285.17
             509.45,1284.86 515.67,1290.71 515.87,1294.00
             515.97,1295.62 515.27,1296.26 515.00,1297.00
             519.70,1298.08 525.03,1299.46 527.43,1304.09
             529.18,1307.46 529.17,1315.55 523.30,1313.34
             520.97,1312.47 521.10,1309.69 518.69,1307.51
             517.34,1306.28 515.71,1305.68 514.00,1305.17
             506.82,1303.06 504.86,1306.20 500.00,1311.00
             502.51,1312.95 506.84,1316.95 507.85,1319.99
             508.94,1323.32 505.91,1327.90 499.00,1321.87
             496.92,1320.05 485.91,1307.98 485.08,1306.00
             483.69,1302.70 485.93,1300.05 489.02,1300.74
             491.31,1301.25 493.34,1303.47 495.00,1305.00
             495.00,1305.00 506.03,1293.00 506.03,1293.00 Z
           M 1215.00,1332.00
           C 1201.91,1328.10 1215.25,1319.00 1219.91,1314.00
             1221.82,1311.95 1225.39,1307.08 1228.01,1306.45
             1229.38,1306.13 1230.63,1306.54 1231.64,1307.49
             1235.07,1310.68 1231.22,1314.59 1228.96,1317.00
             1228.96,1317.00 1224.00,1322.00 1224.00,1322.00
             1220.39,1325.61 1218.02,1327.79 1215.00,1332.00 Z
           M 563.00,1333.00
           C 568.62,1331.41 576.84,1331.38 580.00,1337.00
             574.24,1338.64 566.27,1338.81 563.00,1333.00 Z
           M 543.00,1350.00
           C 544.24,1361.62 551.02,1361.75 557.77,1367.24
             559.69,1368.80 561.29,1371.15 559.22,1373.40
             556.56,1376.30 551.59,1373.51 549.00,1371.93
             541.88,1367.60 535.50,1361.85 535.04,1353.00
             533.91,1331.05 561.12,1330.21 569.08,1347.00
             571.51,1352.12 571.55,1357.88 569.08,1363.00
             568.13,1364.96 566.46,1367.79 563.96,1367.80
             561.32,1367.82 555.05,1361.82 553.00,1359.91
             553.00,1359.91 543.00,1350.00 543.00,1350.00 Z
           M 1190.00,1364.00
           C 1196.30,1362.80 1199.55,1360.04 1203.47,1355.00
             1205.44,1352.48 1207.80,1347.51 1211.02,1346.74
             1212.24,1346.45 1213.47,1346.71 1214.36,1347.62
             1217.45,1350.75 1212.72,1357.41 1210.76,1360.00
             1206.54,1365.58 1202.10,1369.84 1195.00,1371.31
             1183.86,1373.60 1175.47,1365.03 1176.04,1354.00
             1176.97,1336.14 1201.97,1327.43 1210.00,1344.00
             1204.24,1348.36 1194.16,1358.19 1190.00,1364.00 Z
           M 562.00,1357.00
           C 563.88,1347.16 556.30,1344.08 548.00,1344.00
             548.00,1344.00 562.00,1357.00 562.00,1357.00 Z
           M 1199.00,1344.00
           C 1188.99,1344.03 1184.54,1346.12 1184.00,1357.00
             1189.45,1354.44 1195.48,1348.87 1199.00,1344.00 Z
           M 1166.00,1391.00
           C 1166.00,1391.00 1147.72,1373.65 1147.72,1373.65
             1143.70,1371.32 1138.88,1378.64 1136.08,1373.65
             1133.80,1369.65 1143.06,1360.35 1147.00,1361.34
             1149.27,1361.90 1153.26,1366.26 1155.00,1368.00
             1155.00,1368.00 1173.00,1386.00 1173.00,1386.00
             1174.86,1383.41 1177.67,1379.48 1180.98,1378.74
             1182.23,1378.47 1183.46,1378.69 1184.38,1379.62
             1187.39,1382.63 1182.98,1386.92 1180.98,1389.00
             1178.30,1391.79 1165.94,1403.48 1163.02,1404.34
             1159.86,1405.28 1157.72,1403.14 1158.66,1399.98
             1159.51,1397.08 1163.82,1393.18 1166.00,1391.00 Z
           M 606.00,1382.00
           C 607.64,1379.84 609.21,1377.64 611.99,1376.84
             614.08,1376.25 616.19,1376.89 616.65,1379.23
             617.39,1383.02 613.23,1385.72 614.19,1388.91
             615.06,1391.77 620.81,1394.50 622.07,1398.98
             622.55,1400.09 622.65,1401.40 622.07,1402.40
             619.54,1405.76 614.02,1401.53 612.00,1399.82
             612.00,1399.82 605.00,1394.00 605.00,1394.00
             601.43,1400.65 596.40,1403.33 597.34,1406.99
             599.03,1413.56 612.68,1414.76 610.34,1420.70
             607.81,1427.15 594.67,1417.58 592.21,1414.91
             587.63,1409.92 586.51,1403.69 590.57,1398.00
             590.57,1398.00 597.39,1390.00 597.39,1390.00
             599.55,1386.00 595.54,1382.25 598.60,1380.07
             600.96,1378.38 604.09,1380.75 606.00,1382.00 Z
           M 1118.00,1421.00
           C 1113.63,1412.59 1119.30,1411.12 1128.00,1403.02
             1129.97,1401.19 1134.18,1397.10 1136.91,1396.87
             1138.21,1396.77 1139.27,1397.29 1140.05,1398.33
             1143.02,1402.29 1137.55,1406.02 1135.00,1408.28
             1135.00,1408.28 1129.00,1413.83 1129.00,1413.83
             1125.28,1417.17 1122.85,1419.59 1118.00,1421.00 Z
           M 667.00,1431.00
           C 665.68,1429.81 662.82,1427.54 662.34,1425.84
             661.57,1423.14 664.40,1420.70 667.00,1421.05
             669.71,1421.42 671.49,1424.02 673.00,1426.00
             673.00,1426.00 667.00,1431.00 667.00,1431.00 Z
           M 1089.00,1430.00
           C 1091.43,1426.61 1094.95,1422.36 1099.00,1420.87
             1102.26,1419.67 1105.54,1421.09 1104.34,1424.98
             1102.46,1431.09 1092.20,1432.12 1097.83,1440.00
             1097.83,1440.00 1100.29,1442.94 1100.29,1442.94
             1101.28,1443.96 1102.58,1445.30 1104.01,1445.66
             1109.79,1447.15 1114.34,1434.99 1118.19,1433.66
             1124.13,1431.60 1122.56,1439.19 1121.08,1442.00
             1117.65,1448.55 1109.30,1457.41 1101.00,1454.40
             1096.22,1452.66 1090.37,1445.42 1088.00,1441.00
             1080.71,1446.12 1075.49,1442.88 1082.00,1435.00
             1080.17,1433.35 1078.07,1431.49 1077.36,1429.01
             1076.45,1425.82 1078.81,1423.34 1082.02,1424.40
             1084.30,1425.15 1087.26,1428.31 1089.00,1430.00 Z
           M 654.00,1436.00
           C 651.30,1434.37 646.43,1431.23 648.36,1427.32
             648.90,1426.22 649.91,1425.63 651.11,1425.54
             653.70,1425.34 656.17,1427.52 658.00,1429.07
             659.15,1430.04 662.61,1433.10 663.26,1434.28
             666.15,1439.63 652.51,1447.59 651.77,1452.96
             651.22,1457.02 660.67,1461.07 656.38,1465.38
             654.21,1467.57 651.03,1465.85 649.00,1464.43
             649.00,1464.43 633.13,1450.58 633.13,1450.58
             631.50,1448.94 629.46,1446.68 630.36,1444.15
             632.75,1437.49 640.23,1446.87 643.99,1445.81
             646.33,1445.15 651.96,1438.13 654.00,1436.00 Z
           M 1068.00,1480.00
           C 1073.31,1476.30 1075.97,1481.43 1072.55,1485.83
             1071.71,1486.92 1070.08,1488.31 1068.98,1489.18
             1068.98,1489.18 1066.00,1491.30 1066.00,1491.30
             1056.86,1496.40 1058.83,1485.07 1058.54,1484.00
             1058.05,1482.17 1056.59,1480.46 1055.41,1479.01
             1054.35,1477.69 1052.80,1475.77 1051.39,1474.85
             1049.03,1473.32 1044.63,1473.92 1044.63,1469.94
             1044.63,1465.44 1050.70,1463.09 1053.41,1460.51
             1056.17,1457.87 1056.77,1455.60 1061.00,1453.45
             1070.99,1448.39 1079.56,1456.72 1084.00,1465.00
             1097.77,1462.12 1089.20,1475.31 1082.00,1477.35
             1075.71,1479.13 1076.79,1473.53 1079.00,1470.00
             1076.16,1467.95 1069.58,1460.47 1067.56,1460.26
             1064.00,1459.88 1059.46,1465.77 1060.16,1469.58
             1060.65,1472.26 1066.04,1477.87 1068.00,1480.00 Z
           M 699.00,1504.00
           C 692.98,1502.57 688.35,1499.82 685.57,1494.00
             680.87,1484.16 686.38,1469.98 701.00,1470.03
             711.46,1470.07 713.63,1476.50 719.18,1480.99
             721.80,1483.10 726.31,1485.66 727.34,1489.02
             729.17,1494.92 723.08,1493.59 720.00,1492.00
             715.06,1499.38 703.58,1516.31 694.00,1515.79
             688.75,1515.50 682.65,1511.58 679.15,1507.83
             677.33,1505.88 675.10,1502.12 678.43,1500.28
             681.52,1498.58 685.70,1502.50 688.00,1504.19
             692.77,1507.69 693.48,1507.93 699.00,1506.00
             699.00,1506.00 699.00,1504.00 699.00,1504.00 Z
           M 699.00,1478.45
           C 686.19,1483.53 693.42,1498.22 704.00,1495.68
             714.11,1493.25 712.11,1477.17 699.00,1478.45 Z
           M 1028.00,1507.00
           C 1034.82,1506.83 1038.07,1505.19 1042.68,1499.96
             1044.87,1497.47 1047.58,1492.52 1050.97,1491.82
             1058.11,1490.36 1054.14,1499.49 1052.29,1502.00
             1040.02,1518.67 1021.41,1519.10 1015.97,1504.00
             1011.33,1491.12 1024.40,1478.20 1037.00,1479.12
             1043.14,1479.57 1047.51,1483.25 1051.00,1488.00
             1051.00,1488.00 1028.00,1507.00 1028.00,1507.00 Z
           M 1039.00,1488.00
           C 1029.43,1485.89 1024.25,1490.43 1024.00,1500.00
             1029.38,1497.57 1035.24,1492.55 1039.00,1488.00 Z
           M 1016.00,1530.00
           C 1013.07,1534.69 1010.33,1538.54 1005.00,1540.77
             994.51,1545.16 982.79,1538.33 981.55,1527.00
             980.04,1513.15 991.73,1510.99 997.68,1505.31
             1000.01,1503.08 1005.99,1497.13 1009.36,1500.62
             1012.07,1503.42 1007.89,1505.81 1010.99,1511.00
             1016.36,1519.96 1029.58,1527.92 1024.85,1540.00
             1023.19,1544.24 1017.10,1550.03 1013.00,1551.82
             1010.74,1552.81 1007.51,1552.85 1006.82,1549.87
             1005.98,1546.16 1011.62,1542.74 1013.89,1540.56
             1017.99,1536.63 1017.75,1535.01 1016.00,1530.00 Z
           M 749.18,1508.15
           C 755.08,1507.34 756.35,1511.30 760.46,1514.25
             762.97,1516.05 765.77,1516.44 768.79,1519.34
             778.22,1528.38 769.93,1536.48 765.95,1543.00
             762.86,1548.05 765.80,1552.08 761.77,1553.27
             757.99,1554.39 749.17,1547.33 750.08,1543.13
             750.78,1539.88 754.55,1540.48 756.83,1539.12
             762.17,1535.92 767.41,1527.20 759.96,1523.47
             753.14,1520.05 747.10,1529.50 746.62,1531.58
             746.16,1533.54 749.25,1538.92 743.94,1539.54
             740.29,1539.97 730.70,1533.14 731.74,1529.07
             732.78,1525.03 737.11,1526.83 740.71,1523.73
             742.43,1522.25 745.60,1518.14 746.37,1516.00
             747.80,1512.01 745.38,1511.60 749.18,1508.15 Z
           M 996.00,1516.67
           C 986.52,1521.74 989.31,1532.58 997.00,1533.76
             1008.12,1535.46 1011.79,1520.31 1002.96,1516.67
             1000.49,1515.74 998.48,1516.10 996.00,1516.67 Z
           M 968.00,1532.61
           C 970.93,1532.64 973.24,1532.81 976.00,1533.99
             984.83,1537.78 987.52,1548.90 982.91,1557.00
             978.94,1563.98 971.03,1568.49 963.00,1567.90
             950.93,1567.02 945.85,1554.27 950.56,1544.00
             953.99,1536.49 960.25,1533.59 968.00,1532.61 Z
           M 969.00,1540.78
           C 964.26,1541.03 960.49,1542.53 958.17,1547.02
             955.21,1552.77 958.09,1559.63 965.00,1559.80
             975.89,1560.06 983.25,1543.50 969.00,1540.78 Z
           M 928.00,1557.00
           C 926.52,1558.46 924.82,1560.32 922.43,1559.37
             919.75,1558.31 920.37,1555.00 921.61,1553.09
             923.47,1550.23 930.21,1544.82 933.85,1545.42
             938.18,1546.13 935.53,1550.31 938.23,1555.00
             938.23,1555.00 956.00,1579.00 956.00,1579.00
             956.00,1579.00 950.00,1582.59 950.00,1582.59
             950.00,1582.59 940.00,1580.33 940.00,1580.33
             940.00,1580.33 920.00,1574.00 920.00,1574.00
             921.92,1576.22 928.78,1585.11 930.61,1586.02
             933.44,1587.41 937.77,1583.59 939.34,1588.15
             941.14,1593.34 929.52,1600.41 927.06,1600.38
             922.41,1600.32 923.11,1595.71 925.00,1593.00
             925.00,1593.00 908.00,1573.00 908.00,1573.00
             902.16,1577.27 900.25,1571.52 902.01,1568.46
             903.42,1566.00 908.14,1562.79 911.00,1562.62
             913.14,1562.50 917.80,1564.27 920.00,1565.00
             920.00,1565.00 939.00,1571.00 939.00,1571.00
             939.00,1571.00 928.00,1557.00 928.00,1557.00 Z
           M 795.00,1590.00
           C 799.96,1593.38 796.15,1596.82 792.98,1596.54
             789.63,1596.25 776.53,1586.18 775.74,1582.93
             775.07,1580.15 777.34,1578.26 780.02,1578.72
             783.87,1579.22 789.60,1587.24 795.02,1578.72
             796.51,1576.46 798.78,1562.26 799.01,1559.00
             799.15,1555.27 797.79,1552.44 799.01,1550.32
             802.31,1544.94 812.40,1553.23 812.95,1556.96
             813.50,1560.69 809.06,1560.46 807.17,1563.31
             807.17,1563.31 804.00,1576.00 804.00,1576.00
             804.00,1576.00 819.00,1570.00 819.00,1570.00
             814.27,1557.80 830.58,1565.42 832.12,1571.15
             833.38,1575.88 826.88,1575.98 824.00,1576.95
             824.00,1576.95 795.00,1590.00 795.00,1590.00 Z" />
  <path id="Sélection #2"
        fill="red" stroke="none" stroke-width="1"
        d="M 381.00,920.00
           C 381.00,920.00 376.16,880.00 376.16,880.00
             376.16,880.00 375.00,867.00 375.00,867.00
             375.00,867.00 373.09,842.00 373.09,842.00
             373.09,842.00 371.00,817.00 371.00,817.00
             371.00,817.00 371.00,808.00 371.00,808.00
             371.00,808.00 370.00,798.00 370.00,798.00
             369.86,785.70 368.32,786.47 368.04,780.00
             367.93,777.39 367.96,774.41 369.17,772.04
             370.92,768.61 386.35,753.65 390.00,750.00
             390.00,750.00 457.00,683.00 457.00,683.00
             457.00,683.00 721.00,419.00 721.00,419.00
             721.00,419.00 834.00,306.00 834.00,306.00
             834.00,306.00 862.00,278.00 862.00,278.00
             864.33,275.67 870.84,268.20 874.00,268.20
             877.22,268.20 884.55,276.55 887.00,279.00
             887.00,279.00 920.00,312.00 920.00,312.00
             920.00,312.00 980.00,372.00 980.00,372.00
             983.09,375.09 995.78,387.27 997.23,390.00
             998.21,391.84 998.15,393.01 997.94,395.00
             996.77,406.20 995.96,417.73 997.17,429.00
             997.17,429.00 1007.47,472.00 1007.47,472.00
             1013.83,496.39 1017.30,503.63 1017.00,530.00
             1016.87,540.86 1014.52,552.60 1005.00,559.00
             1005.00,559.00 908.00,462.00 908.00,462.00
             908.00,462.00 884.00,438.00 884.00,438.00
             881.81,435.82 877.18,430.48 874.00,430.48
             870.59,430.48 864.45,437.55 862.00,440.00
             862.00,440.00 833.00,469.00 833.00,469.00
             833.00,469.00 754.00,548.00 754.00,548.00
             754.00,548.00 731.00,571.00 731.00,571.00
             726.67,575.33 722.60,580.35 717.00,583.00
             715.01,579.85 712.87,576.25 709.00,575.21
             701.33,573.16 688.98,584.76 688.25,592.00
             687.63,598.24 692.50,601.70 696.00,606.00
             696.00,606.00 677.00,624.40 677.00,624.40
             672.34,627.34 668.97,623.91 662.21,631.10
             655.16,638.61 659.64,641.68 652.94,649.00
             652.94,649.00 634.00,668.00 634.00,668.00
             634.00,668.00 597.00,705.00 597.00,705.00
             597.00,705.00 485.00,817.00 485.00,817.00
             485.00,817.00 417.00,885.00 417.00,885.00
             417.00,885.00 381.00,920.00 381.00,920.00 Z
           M 1127.00,520.00
           C 1132.97,524.27 1140.56,532.56 1146.00,538.00
             1146.00,538.00 1178.00,570.00 1178.00,570.00
             1178.00,570.00 1217.00,609.00 1217.00,609.00
             1222.84,614.84 1229.83,619.26 1230.00,628.00
             1230.00,628.00 1230.00,638.00 1230.00,638.00
             1229.86,648.65 1224.02,664.52 1219.10,674.00
             1216.62,678.78 1213.46,684.54 1207.04,683.73
             1203.41,683.27 1200.59,679.02 1198.16,676.42
             1198.16,676.42 1188.52,663.17 1188.52,663.17
             1188.52,663.17 1176.85,650.04 1176.85,650.04
             1176.85,650.04 1168.74,640.03 1168.74,640.03
             1168.74,640.03 1163.04,633.92 1163.04,633.92
             1163.04,633.92 1140.21,604.17 1140.21,604.17
             1128.56,587.99 1118.24,572.93 1118.00,552.00
             1117.86,539.34 1121.11,531.03 1127.00,520.00 Z
           M 817.00,662.00
           C 817.00,662.00 859.00,619.00 859.00,619.00
             861.68,616.32 870.62,606.20 874.00,606.20
             876.69,606.20 880.18,610.20 882.00,612.00
             882.00,612.00 900.00,630.00 900.00,630.00
             900.00,630.00 915.00,645.00 915.00,645.00
             916.61,646.64 919.75,649.48 919.82,651.91
             919.88,654.18 916.48,657.30 914.83,658.63
             910.15,662.40 900.67,666.70 895.00,669.09
             877.75,676.34 873.00,678.22 854.00,678.00
             840.73,677.84 827.39,669.61 817.00,662.00 Z
           M 1253.00,646.00
           C 1259.70,650.79 1279.80,671.80 1287.00,679.00
             1287.00,679.00 1351.00,743.00 1351.00,743.00
             1351.00,743.00 1370.00,762.00 1370.00,762.00
             1376.34,768.34 1380.37,770.54 1379.96,780.00
             1379.68,786.47 1378.14,785.70 1378.00,798.00
             1378.00,798.00 1377.00,808.00 1377.00,808.00
             1377.00,808.00 1377.00,817.00 1377.00,817.00
             1377.00,817.00 1374.91,842.00 1374.91,842.00
             1374.91,842.00 1373.00,866.00 1373.00,866.00
             1373.00,866.00 1371.84,880.00 1371.84,880.00
             1371.84,880.00 1367.00,920.00 1367.00,920.00
             1360.78,915.55 1349.94,903.94 1344.00,898.00
             1344.00,898.00 1305.00,859.00 1305.00,859.00
             1305.00,859.00 1182.00,736.00 1182.00,736.00
             1182.00,736.00 1147.00,701.00 1147.00,701.00
             1144.20,698.20 1131.96,686.42 1130.73,684.00
             1127.14,676.93 1141.80,671.64 1147.00,672.22
             1164.02,674.12 1183.86,697.69 1195.85,709.42
             1200.48,713.96 1208.29,722.27 1214.72,723.65
             1223.30,725.50 1229.65,715.30 1233.50,709.42
             1233.50,709.42 1237.60,703.00 1237.60,703.00
             1237.60,703.00 1253.00,646.00 1253.00,646.00 Z
           M 916.00,806.00
           C 910.02,803.17 905.63,797.63 901.00,793.00
             896.56,788.56 882.62,775.11 879.80,771.00
             876.17,765.71 878.02,764.48 874.78,759.00
             866.87,745.63 857.46,742.81 843.00,743.00
             834.52,743.12 817.97,749.85 810.00,753.48
             810.00,753.48 800.00,757.08 800.00,757.08
             800.00,757.08 790.91,762.38 790.91,762.38
             790.91,762.38 774.04,770.00 774.04,770.00
             774.04,770.00 765.96,774.56 765.96,774.56
             765.96,774.56 757.00,777.95 757.00,777.95
             747.93,781.84 739.16,786.52 729.00,786.96
             720.04,787.35 714.91,783.48 711.75,775.00
             710.81,772.09 709.99,769.87 711.75,767.00
             712.87,764.87 718.93,759.07 721.00,757.00
             721.00,757.00 739.00,739.00 739.00,739.00
             739.00,739.00 774.00,704.00 774.00,704.00
             774.00,704.00 792.00,686.36 792.00,686.36
             793.40,685.38 794.26,684.92 796.00,684.92
             796.00,684.92 816.00,690.77 816.00,690.77
             816.00,690.77 825.00,692.87 825.00,692.87
             839.27,696.89 860.22,703.53 875.00,702.96
             883.59,702.63 894.52,698.85 902.00,694.69
             902.00,694.69 910.00,690.08 910.00,690.08
             913.97,688.37 925.51,686.21 930.00,686.04
             940.71,685.62 945.85,690.03 946.00,701.00
             946.28,721.95 942.56,739.22 936.06,759.00
             936.06,759.00 932.08,772.00 932.08,772.00
             932.08,772.00 916.00,806.00 916.00,806.00 Z
           M 796.00,789.59
           C 801.35,788.62 811.46,787.88 815.26,792.53
             818.12,796.03 816.74,801.99 815.88,806.00
             813.83,815.59 817.00,821.32 809.78,830.00
             809.78,830.00 785.00,855.00 785.00,855.00
             785.00,855.00 737.00,903.00 737.00,903.00
             737.00,903.00 593.00,1047.00 593.00,1047.00
             593.00,1047.00 538.00,1101.00 538.00,1101.00
             534.16,1104.84 522.12,1117.89 518.00,1119.40
             516.06,1120.12 513.09,1120.00 511.00,1120.00
             511.00,1120.00 479.00,1120.00 479.00,1120.00
             479.00,1120.00 454.00,1116.63 454.00,1116.63
             454.00,1116.63 448.00,1115.20 448.00,1115.20
             443.61,1114.54 438.11,1114.60 434.65,1111.30
             432.84,1109.58 431.32,1105.38 430.23,1103.00
             430.23,1103.00 422.20,1084.00 422.20,1084.00
             420.31,1079.19 413.56,1065.35 415.78,1061.00
             416.90,1058.81 422.03,1053.97 424.00,1052.00
             424.00,1052.00 441.00,1035.00 441.00,1035.00
             441.00,1035.00 489.00,987.04 489.00,987.04
             489.00,987.04 498.00,978.96 498.00,978.96
             498.00,978.96 537.00,940.00 537.00,940.00
             537.00,940.00 612.00,865.00 612.00,865.00
             612.00,865.00 644.00,834.00 644.00,834.00
             644.00,834.00 666.00,812.16 666.00,812.16
             670.48,808.55 672.38,810.25 674.37,815.00
             676.34,819.73 676.73,828.15 675.04,833.00
             669.53,848.75 649.99,858.52 645.02,870.00
             641.59,877.94 651.63,885.48 659.00,883.57
             669.53,880.83 673.23,865.75 676.44,857.00
             679.98,847.31 688.54,835.45 696.28,828.68
             706.67,819.59 722.32,814.49 735.00,809.46
             735.00,809.46 743.00,805.52 743.00,805.52
             743.00,805.52 751.00,802.69 751.00,802.69
             751.00,802.69 771.00,794.67 771.00,794.67
             771.00,794.67 796.00,789.59 796.00,789.59 Z
           M 1085.00,816.00
           C 1091.91,820.95 1102.26,832.51 1109.00,838.96
             1109.00,838.96 1118.00,847.04 1118.00,847.04
             1118.00,847.04 1152.00,881.00 1152.00,881.00
             1152.00,881.00 1248.00,977.00 1248.00,977.00
             1248.00,977.00 1271.00,999.00 1271.00,999.00
             1271.00,999.00 1317.00,1045.00 1317.00,1045.00
             1320.37,1048.37 1332.26,1058.99 1332.89,1063.00
             1333.26,1065.38 1331.09,1070.69 1330.14,1073.00
             1330.14,1073.00 1322.58,1092.00 1322.58,1092.00
             1309.99,1122.00 1298.84,1142.39 1280.00,1169.00
             1273.55,1165.95 1264.40,1155.40 1259.00,1150.00
             1259.00,1150.00 1219.00,1110.00 1219.00,1110.00
             1219.00,1110.00 1191.00,1082.04 1191.00,1082.04
             1191.00,1082.04 1180.00,1072.00 1180.00,1072.00
             1180.00,1072.00 1087.00,979.00 1087.00,979.00
             1087.00,979.00 1042.00,934.00 1042.00,934.00
             1036.67,928.67 1026.03,919.93 1024.00,913.00
             1029.80,908.20 1039.44,893.78 1044.18,887.00
             1044.18,887.00 1072.41,840.91 1072.41,840.91
             1072.41,840.91 1085.00,816.00 1085.00,816.00 Z
           M 950.00,1019.00
           C 950.00,1019.00 995.00,1063.00 995.00,1063.00
             995.00,1063.00 1081.00,1149.00 1081.00,1149.00
             1081.00,1149.00 1160.00,1227.00 1160.00,1227.00
             1160.00,1227.00 1198.00,1266.00 1198.00,1266.00
             1198.00,1266.00 1139.00,1326.00 1139.00,1326.00
             1139.00,1326.00 1123.04,1341.07 1123.04,1341.07
             1121.55,1342.47 1118.97,1345.63 1116.83,1345.66
             1113.97,1345.71 1109.01,1340.01 1107.00,1338.00
             1107.00,1338.00 1085.00,1316.00 1085.00,1316.00
             1085.00,1316.00 1023.00,1254.00 1023.00,1254.00
             1015.92,1246.92 995.76,1227.65 991.00,1221.00
             1000.25,1214.52 1020.31,1203.57 1024.09,1192.99
             1029.49,1177.81 1017.24,1155.75 1011.28,1142.00
             1004.77,1126.97 1003.34,1126.24 996.02,1113.00
             996.02,1113.00 980.83,1084.00 980.83,1084.00
             980.83,1084.00 968.04,1062.72 968.04,1062.72
             968.04,1062.72 962.29,1049.00 962.29,1049.00
             962.29,1049.00 956.63,1039.00 956.63,1039.00
             956.63,1039.00 950.00,1019.00 950.00,1019.00 Z
           M 550.00,1265.00
           C 550.00,1265.00 617.00,1198.00 617.00,1198.00
             623.93,1191.07 645.52,1168.59 652.00,1164.42
             657.44,1160.91 662.22,1161.01 668.00,1159.41
             668.00,1159.41 698.00,1149.50 698.00,1149.50
             698.00,1149.50 713.00,1144.10 713.00,1144.10
             713.00,1144.10 718.00,1141.70 718.00,1141.70
             718.00,1141.70 737.00,1135.17 737.00,1135.17
             737.00,1135.17 745.00,1131.05 745.00,1131.05
             745.00,1131.05 753.00,1128.05 753.00,1128.05
             753.00,1128.05 761.00,1124.03 761.00,1124.03
             761.00,1124.03 772.00,1119.80 772.00,1119.80
             772.00,1119.80 781.00,1115.05 781.00,1115.05
             781.00,1115.05 794.00,1109.51 794.00,1109.51
             794.00,1109.51 804.00,1103.55 804.00,1103.55
             807.94,1101.55 809.28,1102.27 816.00,1098.69
             829.41,1091.55 843.33,1083.18 859.00,1083.00
             876.94,1082.80 880.21,1092.18 889.29,1105.00
             889.29,1105.00 898.70,1117.17 898.70,1117.17
             898.70,1117.17 919.00,1149.00 919.00,1149.00
             912.41,1144.28 893.96,1124.96 887.00,1118.00
             884.61,1115.61 877.10,1107.04 874.00,1107.04
             871.80,1107.04 869.48,1109.59 868.00,1111.01
             868.00,1111.01 857.00,1122.00 857.00,1122.00
             857.00,1122.00 812.00,1167.00 812.00,1167.00
             812.00,1167.00 678.00,1301.00 678.00,1301.00
             678.00,1301.00 644.00,1335.00 644.00,1335.00
             641.63,1337.37 634.29,1345.71 631.17,1345.66
             629.03,1345.63 626.45,1342.47 624.96,1341.07
             624.96,1341.07 610.00,1327.00 610.00,1327.00
             610.00,1327.00 588.29,1306.00 588.29,1306.00
             588.29,1306.00 572.00,1289.00 572.00,1289.00
             564.85,1281.85 555.29,1273.33 550.00,1265.00 Z" />
</svg>
